<svg width="200" height="31" viewBox="0 0 200 31" fill="none" xmlns="http://www.w3.org/2000/svg">
<g clip-path="url(#clip0_969_2791)">
<path d="M20.3497 30.9759H9.18874L0 7.09009H11.1609L20.3497 30.9759Z" fill="#FFE270"/>
<path d="M35.6646 30.9759H24.5037L15.3149 7.09009H26.4757L35.6646 30.9759Z" fill="#FFE270"/>
<path d="M39.0419 19.4684C42.4601 19.4684 45.2311 16.6974 45.2311 13.2793C45.2311 9.86107 42.4601 7.09009 39.0419 7.09009C35.6238 7.09009 32.8528 9.86107 32.8528 13.2793C32.8528 16.6974 35.6238 19.4684 39.0419 19.4684Z" fill="#FFE270"/>
<path d="M78.9179 23.2713L82.3912 8.8569H87.6882L81.6966 30.392H76.3996L72.4486 15.5866L68.4976 30.392H63.2006L57.209 8.8569H62.506L65.9793 23.2713L69.8436 8.8569H75.0535L78.9179 23.2713Z" fill="white"/>
<path d="M89.2927 0H95.2843V5.73069H89.2927V0ZM89.5536 8.85694H95.0239V30.3921H89.5536V8.85694Z" fill="white"/>
<path d="M108.657 17.1929C113.737 18.2345 115.865 20.1885 115.865 23.836C115.865 27.8731 112.695 30.9998 107.355 30.9998C101.971 30.9998 98.8886 27.9172 97.499 24.5301L101.884 21.7518C102.796 24.487 104.663 26.3974 107.442 26.3974C109.135 26.3974 110.828 25.5726 110.828 24.0093C110.828 22.5766 109.396 21.882 106.226 21.2306C102.014 20.4058 98.7149 18.4088 98.7149 14.5009C98.7149 10.4632 102.579 8.24887 106.747 8.24887C111.436 8.24887 113.911 10.0291 115.648 13.6761L111.697 16.0207C110.785 13.6325 109.048 12.2434 106.834 12.2434C105.053 12.2434 103.578 12.8073 103.578 14.1533C103.578 15.4994 105.271 16.4979 108.657 17.1929Z" fill="white"/>
<path d="M123.072 20.9266C123.419 24.2266 125.72 26.3108 128.976 26.3108C131.972 26.3108 133.709 24.791 134.925 22.3598L139.006 24.7043C136.965 28.9157 133.795 30.9999 128.889 30.9999C122.898 30.9999 117.818 26.3974 117.818 19.6241C117.818 12.8513 122.898 8.24887 129.15 8.24887C135.272 8.24887 139.657 12.7642 139.657 19.0167V20.9266L123.072 20.9266ZM123.072 16.9325H134.621C134.099 14.1533 132.102 12.4167 128.976 12.4167C126.024 12.4167 123.896 14.3707 123.072 16.9325Z" fill="white"/>
<path d="M142.912 0H148.383V11.5054C149.989 9.46436 152.551 8.24901 155.46 8.24901C161.191 8.24901 165.75 12.4604 165.75 19.6243C165.75 26.7881 161.061 31 155.373 31C151.943 31 149.729 29.5238 148.383 27.7431V30.3921H142.912V0ZM160.192 19.6243C160.192 15.9772 157.631 13.3723 154.114 13.3723C150.597 13.3723 148.035 15.9772 148.035 19.6243C148.035 23.2713 150.597 25.8762 154.114 25.8762C157.631 25.8762 160.192 23.2713 160.192 19.6243V19.6243Z" fill="white"/>
<path d="M172.956 20.9266C173.303 24.2266 175.605 26.3108 178.861 26.3108C181.857 26.3108 183.593 24.791 184.809 22.3598L188.89 24.7043C186.85 28.9157 183.68 30.9999 178.774 30.9999C172.782 30.9999 167.703 26.3974 167.703 19.6241C167.703 12.8513 172.782 8.24887 179.034 8.24887C185.156 8.24887 189.541 12.7642 189.541 19.0167V20.9266L172.956 20.9266ZM172.956 16.9325H184.505C183.984 14.1533 181.987 12.4167 178.861 12.4167C175.908 12.4167 173.781 14.3707 172.956 16.9325Z" fill="white"/>
<path d="M196.179 23.9746C197.11 23.9746 198.002 24.3443 198.66 25.0023C199.318 25.6602 199.688 26.5526 199.688 27.4832C199.688 28.4137 199.318 29.3061 198.66 29.964C198.002 30.622 197.11 30.9917 196.179 30.9917C195.249 30.9917 194.356 30.622 193.698 29.964C193.04 29.3061 192.671 28.4137 192.671 27.4832C192.671 26.5526 193.04 25.6602 193.698 25.0023C194.356 24.3443 195.249 23.9746 196.179 23.9746Z" fill="white"/>
</g>
<defs>
<clipPath id="clip0_969_2791">
<rect width="199.688" height="31" fill="white"/>
</clipPath>
</defs>
</svg>